<?xml version="1.0" ?><svg enable-background="new 0 0 512 512" height="512px" id="Layer_1" version="1.1" viewBox="0 0 512 512" width="512px" xml:space="preserve" xmlns="http://www.w3.org/2000/svg" xmlns:xlink="http://www.w3.org/1999/xlink"><path d="M322.2,154.8H189.7c-19.3,0-35,15.7-35,35v132.5c0,19.3,15.7,35,35,35h132.5c19.3,0,35-15.7,35-35V189.8  C357.2,170.5,341.5,154.8,322.2,154.8z M240,186.5l0.1,0.2l-0.5,0L240,186.5z M320.8,292.2l-1.5,2.8c-5.8,11.1-18.5,16.8-30.6,13.6  c-18.8-5.1-37.2-15.5-51.4-30c-14.5-14.3-24.9-32.6-30-51.4c-3.3-12.1,2.5-24.8,13.6-30.6c1.2-0.6,2.3-1.2,3.4-1.8  c3.4-1.8,7.5-0.7,9.6,2.5c3.7,5.6,8.9,13.7,15.2,23.3c1.9,2.9,1.5,6.8-1,9.3l-5.6,5.6c-2.8,2.8-3.6,7.1-1.9,10.8  c5.9,12.9,16.2,23.2,29.1,29.1c3.6,1.7,7.9,0.9,10.8-1.9l5.1-5.1c2.5-2.5,6.3-2.9,9.3-1l23.5,15.3  C321.5,284.7,322.6,288.8,320.8,292.2z" fill="#231F20"/></svg>