<?xml version="1.0" encoding="utf-8"?>
<!-- Generator: Adobe Illustrator 24.0.1, SVG Export Plug-In . SVG Version: 6.00 Build 0)  -->
<svg version="1.1" id="ico" xmlns="http://www.w3.org/2000/svg" xmlns:xlink="http://www.w3.org/1999/xlink" x="0px" y="0px"
	 width="50px" height="50px" viewBox="0 0 50 50" style="enable-background:new 0 0 50 50;" xml:space="preserve">
<path d="M28.939,5.733h-7.879c-0.359,0-0.65,0.291-0.65,0.65v0.836h-6.24h-1.539c-0.997,0-1.808,0.874-1.808,1.949v33.151
	c0,1.075,0.811,1.949,1.808,1.949h24.736c0.997,0,1.808-0.874,1.808-1.949V9.167c0-1.075-0.811-1.949-1.808-1.949H35.83h-6.24V6.383
	C29.589,6.024,29.298,5.733,28.939,5.733z M21.71,7.033h6.579v1.672H21.71V7.033z M37.876,9.167v33.151
	c0,0.352-0.232,0.649-0.508,0.649H12.632c-0.275,0-0.508-0.297-0.508-0.649V9.167c0-0.352,0.232-0.649,0.508-0.649h0.889v31.48
	c0,0.359,0.291,0.65,0.65,0.65H35.83c0.359,0,0.65-0.291,0.65-0.65V8.519h0.889C37.644,8.519,37.876,8.816,37.876,9.167z
	 M35.18,8.519v30.831H14.82V8.519h5.59v0.836c0,0.359,0.291,0.65,0.65,0.65h7.879c0.359,0,0.65-0.291,0.65-0.65V8.519H35.18z
	 M17.344,13.481h15.312c0.359,0,0.65,0.291,0.65,0.65s-0.291,0.65-0.65,0.65H17.344c-0.359,0-0.65-0.291-0.65-0.65
	S16.985,13.481,17.344,13.481z M33.306,18.141c0,0.359-0.291,0.65-0.65,0.65H17.344c-0.359,0-0.65-0.291-0.65-0.65
	s0.291-0.65,0.65-0.65h15.312C33.015,17.491,33.306,17.782,33.306,18.141z M33.306,22.149c0,0.359-0.291,0.65-0.65,0.65H17.344
	c-0.359,0-0.65-0.291-0.65-0.65s0.291-0.65,0.65-0.65h15.312C33.015,21.5,33.306,21.791,33.306,22.149z M33.306,26.159
	c0,0.359-0.291,0.65-0.65,0.65H17.344c-0.359,0-0.65-0.291-0.65-0.65s0.291-0.65,0.65-0.65h15.312
	C33.015,25.509,33.306,25.8,33.306,26.159z M33.306,30.167c0,0.359-0.291,0.65-0.65,0.65H17.344c-0.359,0-0.65-0.291-0.65-0.65
	s0.291-0.65,0.65-0.65h15.312C33.015,29.518,33.306,29.809,33.306,30.167z M33.306,34.177c0,0.359-0.291,0.65-0.65,0.65H17.344
	c-0.359,0-0.65-0.291-0.65-0.65s0.291-0.65,0.65-0.65h15.312C33.015,33.527,33.306,33.818,33.306,34.177z"/>
</svg>
