<?xml version="1.0" ?><svg id="Layer_1" style="enable-background:new 0 0 65 65;" version="1.1" viewBox="0 0 65 65" xml:space="preserve" xmlns="http://www.w3.org/2000/svg" xmlns:xlink="http://www.w3.org/1999/xlink"><style type="text/css">
	.st0{fill:#1C1F20;}
</style><g><path class="st0" d="M58.5,62.8h-16c-0.4,0-0.8,0.3-0.8,0.8s0.3,0.8,0.8,0.8h16c0.4,0,0.8-0.3,0.8-0.8S58.9,62.8,58.5,62.8z"/><path class="st0" d="M64.5,62.8h-2c-0.4,0-0.8,0.3-0.8,0.8s0.3,0.8,0.8,0.8h2c0.4,0,0.8-0.3,0.8-0.8S64.9,62.8,64.5,62.8z"/><path class="st0" d="M30.5,6.3h13c0.4,0,0.8-0.3,0.8-0.8s-0.3-0.8-0.8-0.8h-13c-0.4,0-0.8,0.3-0.8,0.8S30.1,6.3,30.5,6.3z"/><path class="st0" d="M47.5,6.3h1c0.4,0,0.8-0.3,0.8-0.8s-0.3-0.8-0.8-0.8h-1c-0.4,0-0.8,0.3-0.8,0.8S47.1,6.3,47.5,6.3z"/><path class="st0" d="M0.5,4.3h1.3v1.3c0,0.4,0.3,0.8,0.8,0.8s0.8-0.3,0.8-0.8V4.3h1.3c0.4,0,0.8-0.3,0.8-0.8S4.9,2.8,4.5,2.8H3.3   V1.5c0-0.4-0.3-0.8-0.8-0.8S1.8,1.1,1.8,1.5v1.3H0.5c-0.4,0-0.8,0.3-0.8,0.8S0.1,4.3,0.5,4.3z"/><path class="st0" d="M63.3,59.5v-50c0-0.4-0.3-0.8-0.8-0.8h-62c-0.4,0-0.8,0.3-0.8,0.8v32c0,0.4,0.3,0.8,0.8,0.8s0.8-0.3,0.8-0.8   V18.3h60.5v40.5H1.3V47.5c0-0.4-0.3-0.8-0.8-0.8s-0.8,0.3-0.8,0.8v12c0,0.4,0.3,0.8,0.8,0.8h62C62.9,60.3,63.3,59.9,63.3,59.5z    M1.3,16.8v-6.5h20.5v6.5H1.3z M23.3,16.8v-6.5h38.5v6.5H23.3z"/><path class="st0" d="M58.5,56.3c0.4,0,0.8-0.3,0.8-0.8v-34c0-0.4-0.3-0.8-0.8-0.8h-54c-0.4,0-0.8,0.3-0.8,0.8v34   c0,0.4,0.3,0.8,0.8,0.8H58.5z M5.3,22.3h52.5v32.5H5.3V22.3z"/><circle class="st0" cx="6.5" cy="13.5" r="1"/><circle class="st0" cx="11.5" cy="13.5" r="1"/><circle class="st0" cx="16.5" cy="13.5" r="1"/><path class="st0" d="M57.5,12.8h-30c-0.4,0-0.8,0.3-0.8,0.8s0.3,0.8,0.8,0.8h30c0.4,0,0.8-0.3,0.8-0.8S57.9,12.8,57.5,12.8z"/><path class="st0" d="M53.5,28.8h-12c-0.4,0-0.8,0.3-0.8,0.8s0.3,0.8,0.8,0.8h12c0.4,0,0.8-0.3,0.8-0.8S53.9,28.8,53.5,28.8z"/><path class="st0" d="M53.5,34.8h-12c-0.4,0-0.8,0.3-0.8,0.8s0.3,0.8,0.8,0.8h12c0.4,0,0.8-0.3,0.8-0.8S53.9,34.8,53.5,34.8z"/><path class="st0" d="M53.5,40.8h-22c-0.4,0-0.8,0.3-0.8,0.8s0.3,0.8,0.8,0.8h22c0.4,0,0.8-0.3,0.8-0.8S53.9,40.8,53.5,40.8z"/><path class="st0" d="M53.5,46.8h-22c-0.4,0-0.8,0.3-0.8,0.8s0.3,0.8,0.8,0.8h22c0.4,0,0.8-0.3,0.8-0.8S53.9,46.8,53.5,46.8z"/><path class="st0" d="M27.2,27.3c0,0,0-0.1,0-0.1c0,0,0-0.1-0.1-0.1c0,0-0.1-0.1-0.1-0.1c0,0,0,0,0,0c0,0-0.1,0-0.1,0   c0,0-0.1-0.1-0.1-0.1c0,0-0.1,0-0.2,0c0,0-0.1,0-0.1,0h-18c-0.4,0-0.8,0.3-0.8,0.8v22c0,0,0,0,0,0c0,0.1,0,0.1,0,0.2   c0,0,0,0.1,0,0.1c0,0,0,0.1,0.1,0.1C7.9,50,8,50,8,50.1c0,0,0,0,0,0c0,0,0.1,0,0.1,0.1c0,0,0.1,0,0.1,0.1c0.1,0,0.2,0.1,0.3,0.1   c0,0,0,0,0,0s0,0,0,0h18c0.4,0,0.8-0.3,0.8-0.8v-22c0,0,0,0,0,0C27.2,27.4,27.2,27.4,27.2,27.3z M24.9,28.3L9.3,47.4V28.3H24.9z    M10.1,48.8l15.7-19.1v19.1H10.1z"/><path class="st0" d="M0.5,45.2c0.1,0,0.2,0,0.3-0.1C0.9,45.1,1,45.1,1,45c0.1-0.2,0.2-0.3,0.2-0.5c0-0.1,0-0.2-0.1-0.3S1.1,44,1,44   c-0.3-0.3-0.8-0.3-1.1,0c-0.1,0.1-0.1,0.2-0.2,0.2c0,0.1-0.1,0.2-0.1,0.3c0,0.2,0.1,0.4,0.2,0.5C0.1,45.2,0.3,45.2,0.5,45.2z"/></g></svg>