<?xml version="1.0" ?><svg viewBox="0 0 22.078 22.079" xmlns="http://www.w3.org/2000/svg"><g data-name="Layer 2" id="Layer_2"><g data-name="Layer 1" id="Layer_1-2"><path d="M14.607,21.41H1.673a1,1,0,0,1-1-1V1.673a1,1,0,0,1,1-1h3.68v1A1.674,1.674,0,0,0,7.025,3.345h5.352A1.674,1.674,0,0,0,14.05,1.673v-1h3.68a1,1,0,0,1,1,1V9.254a.335.335,0,0,0,.67,0V1.673A1.675,1.675,0,0,0,17.73,0H1.673A1.675,1.675,0,0,0,0,1.673V20.406a1.675,1.675,0,0,0,1.673,1.673H14.607A.335.335,0,0,0,14.607,21.41ZM6.022.669h7.36v1a1,1,0,0,1-1,1H7.025a1,1,0,0,1-1-1Zm6.914,5.8h-2.23a.335.335,0,0,1,0-.669h2.23A.335.335,0,0,1,12.936,6.468ZM4.712,5.8H8.921a.335.335,0,0,1,0,.669H4.712A.335.335,0,0,1,4.712,5.8Zm-1.784.669c-.273,0-.781.079-.781-.335s.508-.331.781-.334A.335.335,0,0,1,2.928,6.468ZM12.936,9.59H8.921a.335.335,0,0,1,0-.669h4.015A.335.335,0,0,1,12.936,9.59ZM4.712,8.921H7.137a.335.335,0,0,1,0,.669H4.712A.335.335,0,0,1,4.712,8.921ZM2.928,9.59H2.481a.335.335,0,0,1,0-.669h.447A.335.335,0,0,1,2.928,9.59Zm10.008,3.123h-2.23a.335.335,0,0,1,0-.669h2.23A.335.335,0,0,1,12.936,12.713Zm-4.015,0H4.712a.335.335,0,0,1,0-.669H8.921A.335.335,0,0,1,8.921,12.713Zm-5.993,0H2.481a.335.335,0,0,1,0-.669h.447A.335.335,0,0,1,2.928,12.713Zm5.993,3.122H4.712a.335.335,0,0,1,0-.669H8.921A.335.335,0,0,1,8.921,15.835Zm-5.993,0c-.273,0-.781.08-.781-.334s.508-.331.781-.335A.335.335,0,0,1,2.928,15.835Zm5.993,3.123H4.712a.335.335,0,0,1,0-.669H8.921A.335.335,0,0,1,8.921,18.958Zm-5.993,0c-.273,0-.781.08-.781-.335s.508-.33.781-.334A.335.335,0,0,1,2.928,18.958ZM22.072,13.09a1.438,1.438,0,0,0-1.765-1.259,1.447,1.447,0,0,0-1.99-.583,1.473,1.473,0,0,0-1.471-.231V6.958c-.028-1.524-2.627-1.52-2.655,0v8.216c-2.1-.485-5.019.363-4,2.762a.335.335,0,0,0,.351.153,6.531,6.531,0,0,1,2.029-.164c1.224.351,2.441,1.865,3.535,2.307v1.512a.334.334,0,0,0,.334.334h5.307a.333.333,0,0,0,.334-.334V13.19A.879.879,0,0,0,22.072,13.09Zm-.662,8.319H16.772V20.294H21.41Zm0-1.784H16.437c-1.084-.373-2.377-2.015-3.664-2.337a5.757,5.757,0,0,0-2.066.088c-.505-1.845,2.766-1.81,3.728-1.456a.337.337,0,0,0,.425-.322V6.958c.009-.632,1.308-.644,1.317,0v4.729a.336.336,0,0,0,.6.2.788.788,0,0,1,1.23,0,.337.337,0,0,0,.239.135c.291,0,.467-.346.784-.3a.772.772,0,0,1,.751.607.334.334,0,0,0,.189.235c.23.11.433-.135.67-.107a.775.775,0,0,1,.769.73Z" data-name="study program" id="study_program"/></g></g></svg>